<svg xmlns="http://www.w3.org/2000/svg" xmlns:xlink="http://www.w3.org/1999/xlink" preserveAspectRatio="xMidYMid" width="222" height="44.844" viewBox="0 0 222 44.844">
  <defs>
    <style>
      .cls-1 {
        fill: #000;
        filter: url(#color-overlay-1);
        fill-rule: evenodd;
      }
    </style>

    <filter id="color-overlay-1" filterUnits="userSpaceOnUse">
      <feFlood flood-color="#fff"/>
      <feComposite operator="in" in2="SourceGraphic"/>
      <feBlend in2="SourceGraphic" result="solidFill"/>
    </filter>
  </defs>
  <path d="M219.499,20.000 C218.121,20.000 216.999,18.878 216.999,17.499 C216.999,16.121 218.121,14.999 219.499,14.999 C220.878,14.999 222.000,16.121 222.000,17.499 C222.000,18.878 220.878,20.000 219.499,20.000 ZM219.499,15.221 C218.243,15.221 217.220,16.243 217.220,17.499 C217.220,18.756 218.243,19.779 219.499,19.779 C220.756,19.779 221.778,18.756 221.778,17.499 C221.778,16.243 220.756,15.221 219.499,15.221 ZM219.836,17.556 C219.939,17.605 220.018,17.654 220.071,17.702 C220.185,17.806 220.292,17.937 220.394,18.093 L220.905,18.893 L220.416,18.893 L220.027,18.281 C219.913,18.105 219.820,17.970 219.746,17.876 C219.673,17.783 219.607,17.717 219.549,17.680 C219.491,17.643 219.432,17.616 219.371,17.602 C219.327,17.592 219.255,17.588 219.155,17.588 L218.704,17.588 L218.704,18.893 L218.315,18.893 L218.315,15.954 L219.618,15.954 C219.880,15.954 220.079,15.980 220.215,16.033 C220.352,16.086 220.461,16.179 220.542,16.313 C220.624,16.446 220.664,16.594 220.664,16.756 C220.664,16.964 220.597,17.140 220.462,17.283 C220.327,17.426 220.118,17.517 219.836,17.556 ZM220.112,16.413 C220.011,16.323 219.852,16.279 219.634,16.279 L218.704,16.279 L218.704,17.251 L219.540,17.251 C219.718,17.251 219.856,17.233 219.957,17.196 C220.057,17.159 220.133,17.100 220.185,17.019 C220.237,16.939 220.263,16.851 220.263,16.756 C220.263,16.617 220.213,16.502 220.112,16.413 ZM206.490,28.929 L204.999,28.929 L204.999,23.736 L199.590,15.805 L201.379,15.805 L205.766,22.369 L210.187,15.805 L211.896,15.805 L206.490,23.716 L206.490,28.929 ZM195.943,28.929 L194.140,28.929 L190.372,23.842 L186.647,23.842 L186.647,28.929 L185.176,28.929 L185.176,15.805 L190.774,15.805 C192.371,15.805 193.655,16.298 194.474,17.117 C195.104,17.755 195.475,18.674 195.475,19.709 L195.475,19.745 C195.475,21.910 194.000,23.182 191.967,23.560 L191.967,23.597 L195.943,28.929 ZM193.986,19.801 L193.986,19.763 C193.986,18.149 192.761,17.179 190.660,17.179 L186.647,17.179 L186.647,22.491 L190.919,22.491 C192.723,22.397 193.986,21.407 193.986,19.801 ZM179.275,28.929 L177.472,28.929 L173.706,23.842 L169.981,23.842 L169.981,28.929 L168.510,28.929 L168.510,15.805 L174.108,15.805 C175.707,15.805 176.987,16.298 177.808,17.117 C178.437,17.755 178.811,18.674 178.811,19.709 L178.811,19.745 C178.811,21.910 177.331,23.182 175.299,23.560 L175.299,23.597 L179.275,28.929 ZM177.323,19.801 L177.323,19.763 C177.323,18.149 176.096,17.179 173.996,17.179 L169.981,17.179 L169.981,22.491 L174.252,22.491 C176.058,22.397 177.323,21.407 177.323,19.801 ZM153.020,15.805 L162.433,15.805 L162.433,17.154 L154.488,17.154 L154.488,21.636 L161.593,21.636 L161.593,22.987 L154.488,22.987 L154.488,27.581 L162.522,27.581 L162.522,28.929 L153.020,28.929 L153.020,15.805 ZM139.913,21.867 L146.962,21.867 L146.962,23.216 L139.913,23.216 L139.913,28.929 L138.443,28.929 L138.443,15.805 L147.798,15.805 L147.798,17.179 L139.913,17.179 L139.913,21.867 ZM114.627,18.170 L114.627,28.929 L113.195,28.929 L113.195,15.805 L114.569,15.805 L122.766,26.321 L122.766,15.805 L124.200,15.805 L124.200,28.929 L123.029,28.929 L114.627,18.170 ZM107.296,28.932 L105.492,28.932 L101.725,23.842 L98.001,23.842 L98.001,28.932 L96.531,28.932 L96.531,15.807 L102.127,15.807 C103.725,15.807 105.007,16.300 105.826,17.119 C106.457,17.757 106.829,18.676 106.829,19.711 L106.829,19.747 C106.829,21.912 105.355,23.184 103.320,23.562 L103.320,23.599 L107.296,28.932 ZM105.343,19.802 L105.343,19.766 C105.343,18.151 104.117,17.180 102.016,17.180 L98.001,17.180 L98.001,22.494 L102.275,22.494 C104.080,22.399 105.343,21.408 105.343,19.802 ZM83.939,29.155 C79.980,29.155 77.325,26.031 77.325,22.405 L77.325,22.371 C77.325,18.755 80.018,15.585 83.979,15.585 C87.939,15.585 90.597,18.719 90.597,22.336 L90.597,22.371 C90.597,25.991 87.902,29.155 83.939,29.155 ZM89.071,22.371 C89.071,19.392 86.916,16.955 83.939,16.955 C80.967,16.955 78.849,19.353 78.849,22.336 L78.849,22.371 C78.849,25.352 81.005,27.792 83.979,27.792 C86.952,27.792 89.071,25.389 89.071,22.405 L89.071,22.371 ZM72.225,28.932 L66.434,21.569 L71.929,15.807 L73.824,15.807 L68.249,21.543 L74.068,28.932 L72.225,28.932 ZM62.984,15.807 L64.454,15.807 L64.454,28.932 L62.984,28.932 L62.984,15.807 ZM35.207,4.777 L30.844,4.777 L30.844,4.216 L47.988,4.216 L47.988,15.925 L47.583,15.925 C46.061,9.073 42.461,4.777 35.207,4.777 ZM26.114,0.004 L26.669,0.004 L26.669,44.837 L26.114,44.837 L26.114,0.004 ZM-0.001,21.491 L14.846,4.216 L19.173,4.216 L19.173,4.777 L15.098,4.777 L4.541,17.061 L20.439,40.065 L23.335,40.065 L23.335,40.625 L13.224,40.625 L-0.001,21.491 ZM39.365,14.391 L39.772,14.391 L39.772,30.038 L39.365,30.038 C39.163,27.532 38.454,22.420 30.844,22.420 L30.844,21.854 C36.727,21.854 38.907,19.402 39.365,14.391 Z" class="cls-1"/>
</svg>